<svg width="96" height="119" viewBox="0 0 96 119" fill="none" xmlns="http://www.w3.org/2000/svg">
<path d="M14.1238 2.1883C4.20544 11.6946 1.83098 26.6852 8.33603 38.7051C9.72114 41.2645 11.8235 44.0981 13.7775 45.9491C15.781 47.8686 16.5477 48.0742 17.7102 47.0231C18.7491 46.0633 18.6007 45.1492 17.1661 43.6867C12.986 39.4135 10.3395 34.5461 9.32539 29.2217C8.85544 26.8451 8.80598 22.1606 9.17699 19.944C10.1663 14.3225 12.5655 9.79788 17.2403 4.74768C18.4523 3.42229 18.5512 2.37112 17.5124 1.54846C16.3993 0.657249 15.5584 0.817211 14.1238 2.1883Z" fill="#FF383C" stroke="#FF383C" stroke-width="2"/>
<path d="M78.5083 1.75411C77.4695 2.75958 77.791 3.71935 79.8687 5.86739C83.2572 9.40939 85.8048 14.4596 86.7695 19.6012C87.3631 22.6633 87.1157 28.2162 86.2995 31.1641C85.0628 35.5287 82.9357 39.2535 79.5966 42.9326C78.0878 44.5779 77.7168 45.1264 77.7168 45.7434C77.7168 47.0231 79.2008 47.96 80.5612 47.4801C81.1054 47.2744 84.1971 43.9381 85.508 42.1328C92.7056 32.1238 93.2498 18.7557 86.8931 8.49532C85.3844 6.09591 83.7766 4.03927 82.1195 2.41681C81.0559 1.38849 80.7591 1.22853 79.9676 1.22853C79.3245 1.22853 78.8793 1.38849 78.5083 1.75411Z" fill="#FF383C" stroke="#FF383C" stroke-width="2"/>
<path d="M20.0883 7.7869C17.788 10.0035 15.7103 13.2941 14.4242 16.7219C12.4207 22.1834 12.8907 29.2674 15.6609 34.5918C17.3428 37.8367 20.2367 41.3787 21.597 41.9271C22.6111 42.2928 23.7489 41.8357 24.1941 40.8531C24.6393 39.8705 24.4415 39.4135 22.7101 37.5625C19 33.5635 17.1449 28.4904 17.4417 23.2803C17.7138 18.4129 19.371 14.5967 22.8585 10.7348C24.5899 8.83808 24.7383 8.01542 23.5263 7.07851C22.3391 6.14159 21.6712 6.2787 20.0883 7.7869Z" fill="#FF383C" stroke="#FF383C" stroke-width="2"/>
<path d="M72.3535 6.98721C71.2157 8.17549 71.3394 8.65537 73.6891 11.3519C80.5157 19.2128 80.3178 30.1815 73.1944 37.7454C72.4524 38.5452 71.7599 39.4593 71.6857 39.7563C71.3394 41.0132 72.8234 42.3386 74.2085 42.0187C75.5689 41.6987 78.6359 38.0196 80.4415 34.5462C83.187 29.2675 83.6569 22.1835 81.6535 16.722C80.3673 13.2942 78.2897 10.0036 75.9894 7.78701C74.8269 6.69014 74.4806 6.48447 73.7386 6.48447C73.145 6.48447 72.6998 6.64444 72.3535 6.98721Z" fill="#FF383C" stroke="#FF383C" stroke-width="2"/>
<path d="M27.093 12.3116C26.351 12.7915 24.3722 15.2823 23.556 16.7676C20.2417 22.8461 21.3052 30.3415 26.1531 35.2545C27.4145 36.5114 28.0329 36.7399 29.1212 36.3057C30.1105 35.9401 30.6052 35.1174 30.3826 34.2948C30.3084 33.9977 29.7395 33.1751 29.1212 32.4895C27.5382 30.7071 26.3757 28.2391 26.0047 25.8626C25.4605 22.3891 26.4252 19.327 29.0717 16.1049C30.6794 14.1626 30.8278 13.477 29.8385 12.5629C29.0964 11.8774 27.9339 11.7631 27.093 12.3116Z" fill="#FF383C" stroke="#FF383C" stroke-width="2"/>
<path d="M66.244 12.5629C65.2547 13.477 65.4031 14.1625 67.0108 16.1049C68.7422 18.2301 69.4842 19.7155 70.0036 22.0692C70.7704 25.7254 69.6079 29.5645 66.7387 32.7409C66.244 33.2665 65.7741 33.952 65.6999 34.2262C65.3536 35.5516 66.9118 36.8313 68.3464 36.3743C70.0036 35.8487 73.0954 31.2555 73.9116 28.0792C74.8515 24.5372 74.2826 20.0126 72.5512 16.8133C71.7103 15.3051 69.7563 12.8143 68.9895 12.3116C68.1485 11.7631 66.986 11.8774 66.244 12.5629Z" fill="#FF383C" stroke="#FF383C" stroke-width="2"/>
<path d="M46.1098 15.6479C40.6436 16.5391 36.7603 21.5893 37.6508 26.6852C37.9723 28.6276 39.0853 30.6614 40.5199 31.9868L41.6082 33.0151V39.1622V45.3321L22.3899 57.192C11.8037 63.7047 2.89943 69.2805 2.60263 69.5776C1.76167 70.446 1.53906 71.2458 1.53906 73.5995C1.53906 75.3362 1.638 75.9989 2.03374 76.7301C2.57789 77.7813 3.74039 78.604 4.95236 78.8325L5.74385 78.9924V96.8852C5.74385 108.974 5.81805 114.984 6.01592 115.418C6.3622 116.286 7.42576 117.315 8.39039 117.68C8.90981 117.886 10.1712 118 12.1005 118C15.6127 118 16.7752 117.612 17.7399 116.081L18.3582 115.098V102.849V90.5782H25.7784H33.1739L33.2481 103.009L33.3223 115.441L34.0891 116.332C35.6473 118.137 33.4954 118 61.717 118C82.5431 118 87.0199 117.954 87.6877 117.68C88.6524 117.315 89.7159 116.286 90.0622 115.418C90.2601 114.984 90.3343 108.974 90.3343 96.8852V78.9696L91.1258 78.8325C92.3377 78.604 93.5002 77.7813 94.0444 76.7301C94.4401 75.9989 94.5391 75.3362 94.5391 73.5995C94.5391 71.2458 94.3165 70.446 93.4755 69.5776C93.1787 69.2805 84.2744 63.7047 73.713 57.192L54.4699 45.3321V39.1393V32.9694L55.1872 32.3981C56.2013 31.6211 57.5369 29.6559 58.0069 28.3077C58.6252 26.5024 58.7242 25.4284 58.4274 23.7602C57.4875 18.3444 51.947 14.6881 46.1098 15.6479ZM50.6361 19.944C52.8622 20.8581 54.272 22.9376 54.272 25.2227C54.272 27.3022 53.5548 28.5362 51.1803 30.41L50.2651 31.1184V36.877V42.6127L49.721 42.4299C49.3994 42.3385 48.6574 42.2471 48.0391 42.2471C47.4207 42.2471 46.6787 42.3385 46.3819 42.4299L45.813 42.6127V36.877V31.1413L45.2194 30.6385C44.8978 30.3643 44.23 29.793 43.7106 29.3588C41.2125 27.2565 41.163 23.3946 43.6117 21.1323C44.8236 19.9897 46.1593 19.5098 48.0391 19.5098C49.0779 19.5098 49.9931 19.6698 50.6361 19.944ZM69.3103 59.203L90.3343 72.137V73.5538C90.3343 74.9706 90.3343 74.9934 89.5675 75.1305C88.2813 75.359 87.1931 76.136 86.6489 77.1872C86.1295 78.1469 86.1295 78.4212 86.1295 96.1311V114.115H61.7665H37.4034V102.027C37.4034 94.0516 37.3045 89.7098 37.1314 89.2756C36.7603 88.3159 35.4494 87.1733 34.4353 86.9219C33.9654 86.7848 30.1069 86.6934 25.7042 86.6934C19.1992 86.6934 17.6904 86.762 16.9484 87.0362C15.7117 87.5161 15.1675 87.996 14.6234 89.0928C14.2029 89.9383 14.1534 90.8524 14.1534 102.05V114.115H12.051H9.94864V96.1311C9.94864 78.4212 9.94864 78.1469 9.42922 77.1872C8.88507 76.136 7.79678 75.359 6.5106 75.1305L5.71912 74.9706L5.79332 73.5081L5.86752 72.0456L26.7678 59.1801C38.2691 52.0961 47.8165 46.2919 47.9896 46.269C48.138 46.269 57.7595 52.0733 69.3103 59.203Z" fill="#FF383C" stroke="#FF383C" stroke-width="2"/>
<path d="M14.7725 75.7703C13.981 76.6387 14.0552 77.6213 15.0445 78.3982C15.8855 79.1066 16.7759 79.0609 17.6416 78.2611C18.5568 77.3928 18.6063 76.3873 17.7406 75.6103C16.8501 74.7648 15.6134 74.8334 14.7725 75.7703Z" fill="#FF383C" stroke="#FF383C" stroke-width="2"/>
<path d="M23.2268 75.6332C22.089 76.7073 22.5837 78.4668 24.1419 78.8096C24.4388 78.8781 36.781 78.901 51.572 78.8781L78.4579 78.8096L79.0268 78.3069C79.843 77.5528 79.7688 76.2731 78.8784 75.5875L78.2106 75.0391H51.0526H23.8946L23.2268 75.6332Z" fill="#FF383C" stroke="#FF383C" stroke-width="2"/>
</svg>
